<svg width="800" height="800" viewBox="0 0 800 800" fill="none" xmlns="http://www.w3.org/2000/svg">
<g clip-path="url(#clip0_199:21)">
<path d="M400 1000C731.371 1000 1000 731.371 1000 400C1000 68.6292 731.371 -200 400 -200C68.6292 -200 -200 68.6292 -200 400C-200 731.371 68.6292 1000 400 1000Z" fill="white" fill-opacity="0.22"/>
<path d="M400 900C676.142 900 900 676.142 900 400C900 123.858 676.142 -100 400 -100C123.858 -100 -100 123.858 -100 400C-100 676.142 123.858 900 400 900Z" fill="#EFF3FF" fill-opacity="0.22"/>
<path d="M519 655V179.557L700 53V655H519Z" fill="#DDE5C9" stroke="#EBECEF"/>
<path d="M288 175.885L101 56L102.716 652H288V175.885Z" fill="#DDE5C9" stroke="#EBECEF"/>
<path d="M314 655V186L404.712 237.35L492 186V655H314Z" fill="#48701F" stroke="#EBECEF"/>
</g>
<defs>
<clipPath id="clip0_199:21">
<rect width="800" height="800" fill="white"/>
</clipPath>
</defs>
</svg>
