<svg width="800" height="800" viewBox="0 0 800 800" fill="none" xmlns="http://www.w3.org/2000/svg">
<g clip-path="url(#clip0_198:2)">
<path d="M400 1000C731.371 1000 1000 731.371 1000 400C1000 68.6292 731.371 -200 400 -200C68.6292 -200 -200 68.6292 -200 400C-200 731.371 68.6292 1000 400 1000Z" fill="white" fill-opacity="0.22"/>
<path d="M400 900C676.142 900 900 676.142 900 400C900 123.858 676.142 -100 400 -100C123.858 -100 -100 123.858 -100 400C-100 676.142 123.858 900 400 900Z" fill="#E9EDDE"/>
<path d="M400 700C565.685 700 700 565.685 700 400C700 234.315 565.685 100 400 100C234.315 100 100 234.315 100 400C100 565.685 234.315 700 400 700Z" fill="#A6C930" fill-opacity="0.2"/>
<path d="M400 600C510.457 600 600 510.457 600 400C600 289.543 510.457 200 400 200C289.543 200 200 289.543 200 400C200 510.457 289.543 600 400 600Z" fill="#87AE27" fill-opacity="0.6"/>
<path d="M400 500C455.228 500 500 455.228 500 400C500 344.772 455.228 300 400 300C344.772 300 300 344.772 300 400C300 455.228 344.772 500 400 500Z" fill="#1E4C01" fill-opacity="0.7"/>
</g>
<defs>
<clipPath id="clip0_198:2">
<rect width="800" height="800" fill="white"/>
</clipPath>
</defs>
</svg>
